<?xml version="1.0" encoding="UTF-8" standalone="no"?>
<!-- Created with Inkscape (http://www.inkscape.org/) -->

<svg
   width="1.0375303in"
   height="1.0275362in"
   viewBox="0 0 26.353322 26.09947"
   version="1.1"
   id="svg135"
   inkscape:version="1.2.1 (9c6d41e410, 2022-07-14)"
   sodipodi:docname="light-mode.svg"
   xmlns:inkscape="http://www.inkscape.org/namespaces/inkscape"
   xmlns:sodipodi="http://sodipodi.sourceforge.net/DTD/sodipodi-0.dtd"
   xmlns="http://www.w3.org/2000/svg"
   xmlns:svg="http://www.w3.org/2000/svg">
  <sodipodi:namedview
     id="namedview137"
     pagecolor="#505050"
     bordercolor="#eeeeee"
     borderopacity="1"
     inkscape:showpageshadow="0"
     inkscape:pageopacity="0"
     inkscape:pagecheckerboard="0"
     inkscape:deskcolor="#505050"
     inkscape:document-units="in"
     showgrid="false"
     inkscape:zoom="4.7572176"
     inkscape:cx="59.068141"
     inkscape:cy="76.410211"
     inkscape:window-width="1920"
     inkscape:window-height="1121"
     inkscape:window-x="-9"
     inkscape:window-y="-9"
     inkscape:window-maximized="1"
     inkscape:current-layer="layer1" />
  <defs
     id="defs132">
    <inkscape:path-effect
       effect="copy_rotate"
       starting_point="112.7,12.7"
       origin="12.7,12.7"
       id="path-effect387"
       is_visible="true"
       lpeversion="1.2"
       lpesatellites=""
       method="normal"
       num_copies="9"
       starting_angle="0"
       rotation_angle="40"
       gap="0"
       copies_to_360="true"
       mirror_copies="false"
       split_items="false"
       link_styles="false" />
    <inkscape:path-effect
       effect="copy_rotate"
       starting_point="163.5,63.5"
       origin="63.5,63.5"
       id="path-effect1124"
       is_visible="true"
       lpeversion="1.2"
       lpesatellites=""
       method="normal"
       num_copies="9"
       starting_angle="0"
       rotation_angle="40"
       gap="0"
       copies_to_360="true"
       mirror_copies="false"
       split_items="false"
       link_styles="false" />
    <inkscape:path-effect
       effect="tiling"
       id="path-effect1122"
       is_visible="true"
       lpeversion="1"
       unit="px"
       seed="1;1"
       lpesatellites=""
       num_rows="1"
       num_cols="3"
       gapx="0"
       gapy="0"
       offset="0"
       offset_type="false"
       scale="0"
       rotate="0"
       mirrorrowsx="false"
       mirrorrowsy="false"
       mirrorcolsx="false"
       mirrorcolsy="false"
       mirrortrans="false"
       shrink_interp="false"
       split_items="false"
       link_styles="false"
       interpolate_scalex="false"
       interpolate_scaley="true"
       interpolate_rotatex="false"
       interpolate_rotatey="true"
       random_scale="false"
       random_rotate="false"
       random_gap_y="false"
       random_gap_x="false"
       transformorigin="" />
  </defs>
  <g
     inkscape:label="Layer 1"
     inkscape:groupmode="layer"
     id="layer1"
     transform="translate(0.43557535,0.64641808)">
    <circle
       style="fill:#ffffff;fill-opacity:1;stroke:#000000;stroke-width:1.01600203;stroke-linecap:round;stroke-linejoin:round;stroke-dasharray:none"
       id="path231"
       cx="12.696683"
       cy="12.701297"
       r="5.7150116" />
    <path
       id="path1003"
       style="fill:#ffffff;stroke:#000000;stroke-width:1.01622207;stroke-linecap:round;stroke-linejoin:round;stroke-dasharray:none"
       d="m 14.475981,3.6715815 c 0,0.8544892 -0.692119,1.5471896 -1.547678,1.5471896 -0.855558,0 -1.549125,-0.6927004 -1.549125,-1.5471896 l -0.0035,-2.1474019 c 0,-0.85448935 0.693567,-1.54718977 1.549125,-1.54718975 0.855559,-2e-8 1.547677,0.6927004 1.547677,1.54718975 z M 8.2571248,4.6422516 C 8.8063799,5.2968283 8.7214452,6.2723531 8.066049,6.8222958 7.4106536,7.3722379 6.4340912,7.2874149 5.8848361,6.6328382 L 4.5018316,4.9900826 C 3.9525764,4.3355058 4.0386203,3.3590503 4.6940158,2.8091082 5.349412,2.2591655 6.3248644,2.3449199 6.8741196,2.9994967 Z M 4.1171393,9.3832317 c 0.8415076,0.1483805 1.4034991,0.9502713 1.2549329,1.7928323 -0.1485661,0.84256 -0.9511795,1.405304 -1.7926871,1.256923 L 1.4639993,12.063542 C 0.62249159,11.915161 0.06075149,11.111845 0.2093176,10.269285 0.35788384,9.4267236 1.1602456,8.8654066 2.0017533,9.0137871 Z M 3.9931697,15.676165 c 0.7400094,-0.427245 1.685965,-0.174203 2.1137445,0.566733 0.427779,0.740935 0.1746664,1.687932 -0.565343,2.115177 L 3.6836166,19.434807 C 2.9436071,19.862051 1.9969275,19.607755 1.5691485,18.86682 1.141369,18.125884 1.3952061,17.180142 2.1352156,16.752898 Z m 3.9500531,4.900352 c 0.2922525,-0.802957 1.1795491,-1.217164 1.9835116,-0.924546 0.8039616,0.292618 1.2187836,1.180758 0.9265316,1.983715 L 10.1221,23.654781 C 9.8298473,24.457738 8.9411901,24.87145 8.1372285,24.578832 7.333266,24.286213 6.9198054,23.398569 7.2120579,22.595612 Z m 6.1758022,1.214843 c -0.292253,-0.802958 0.121209,-1.690602 0.925171,-1.98322 0.803962,-0.292618 1.692619,0.121093 1.984872,0.924051 l 0.737743,2.0167 c 0.292253,0.802957 -0.122569,1.691097 -0.926531,1.983715 -0.803962,0.292618 -1.691258,-0.121589 -1.983511,-0.924546 z m 5.511824,-3.039106 c -0.740009,-0.427245 -0.993846,-1.372988 -0.566066,-2.113923 0.427779,-0.740935 1.374458,-0.995232 2.114468,-0.567987 l 1.861454,1.07067 c 0.74001,0.427244 0.993123,1.374241 0.565344,2.115176 -0.42778,0.740936 -1.373735,0.993978 -2.113745,0.566733 z m 2.268803,-5.871023 c -0.841507,0.148381 -1.643869,-0.412937 -1.792435,-1.255498 -0.148566,-0.84256 0.413174,-1.6458767 1.254681,-1.7942572 l 2.11417,-0.3763392 c 0.841508,-0.1483805 1.644122,0.4143635 1.792688,1.2569234 0.148566,0.842561 -0.413426,1.644451 -1.254933,1.792831 z M 19.863836,6.9254088 C 19.314581,7.5799855 18.339128,7.6657392 17.683731,7.1157965 17.028336,6.5658544 16.942292,5.5893989 17.491547,4.9348222 l 1.377642,-1.6472551 c 0.549256,-0.6545768 1.525818,-0.7393998 2.181213,-0.1894577 0.655397,0.5499427 0.740331,1.5254669 0.191075,2.1800437 z"
       sodipodi:nodetypes="csccscc"
       inkscape:path-effect="#path-effect387"
       inkscape:original-d="m 14.475981,3.6715815 c 0,0.8544892 -0.692119,1.5471896 -1.547678,1.5471896 -0.855558,0 -1.549125,-0.6927004 -1.549125,-1.5471896 l -0.0035,-2.1474019 c 0,-0.85448935 0.693567,-1.54718977 1.549125,-1.54718975 0.855559,-2e-8 1.547677,0.6927004 1.547677,1.54718975 z"
       class="UnoptimicedTransforms"
       transform="matrix(0.99956699,0,0,1,0.01354529,0)" />
  </g>
</svg>
