<?xml version="1.0" encoding="UTF-8" standalone="no"?>
<!-- Created with Inkscape (http://www.inkscape.org/) -->

<svg
   width="1.0175382in"
   height="0.99304289in"
   viewBox="0 0 25.845522 25.22334"
   version="1.1"
   id="svg135"
   inkscape:version="1.2.1 (9c6d41e410, 2022-07-14)"
   sodipodi:docname="settings.svg"
   xmlns:inkscape="http://www.inkscape.org/namespaces/inkscape"
   xmlns:sodipodi="http://sodipodi.sourceforge.net/DTD/sodipodi-0.dtd"
   xmlns="http://www.w3.org/2000/svg"
   xmlns:svg="http://www.w3.org/2000/svg">
  <sodipodi:namedview
     id="namedview137"
     pagecolor="#505050"
     bordercolor="#eeeeee"
     borderopacity="1"
     inkscape:showpageshadow="0"
     inkscape:pageopacity="0"
     inkscape:pagecheckerboard="0"
     inkscape:deskcolor="#505050"
     inkscape:document-units="in"
     showgrid="false"
     inkscape:zoom="4.7572176"
     inkscape:cx="12.297104"
     inkscape:cy="72.836694"
     inkscape:window-width="1920"
     inkscape:window-height="1121"
     inkscape:window-x="-9"
     inkscape:window-y="-9"
     inkscape:window-maximized="1"
     inkscape:current-layer="layer1"
     showguides="false" />
  <defs
     id="defs132">
    <inkscape:path-effect
       effect="copy_rotate"
       starting_point="36.168903,12.065118"
       origin="25.469023,12.065118"
       id="path-effect2450"
       is_visible="true"
       lpeversion="1.2"
       lpesatellites=""
       method="normal"
       num_copies="7"
       starting_angle="0"
       rotation_angle="51.428571"
       gap="-0.01"
       copies_to_360="true"
       mirror_copies="false"
       split_items="false"
       link_styles="false" />
    <inkscape:path-effect
       effect="copy_rotate"
       starting_point="312.31704,63.5"
       origin="63.5,63.5"
       id="path-effect1124"
       is_visible="true"
       lpeversion="1.2"
       lpesatellites=""
       method="normal"
       num_copies="9"
       starting_angle="0"
       rotation_angle="40"
       gap="0"
       copies_to_360="true"
       mirror_copies="false"
       split_items="false"
       link_styles="false" />
    <inkscape:path-effect
       effect="tiling"
       id="path-effect1122"
       is_visible="true"
       lpeversion="1"
       unit="px"
       seed="1;1"
       lpesatellites=""
       num_rows="1"
       num_cols="3"
       gapx="0"
       gapy="0"
       offset="0"
       offset_type="false"
       scale="0"
       rotate="0"
       mirrorrowsx="false"
       mirrorrowsy="false"
       mirrorcolsx="false"
       mirrorcolsy="false"
       mirrortrans="false"
       shrink_interp="false"
       split_items="false"
       link_styles="false"
       interpolate_scalex="false"
       interpolate_scaley="true"
       interpolate_rotatex="false"
       interpolate_rotatey="true"
       random_scale="false"
       random_rotate="false"
       random_gap_y="false"
       random_gap_x="false"
       transformorigin="" />
  </defs>
  <g
     inkscape:label="Layer 1"
     inkscape:groupmode="layer"
     id="layer1"
     transform="translate(-12.546261,0.63492698)">
    <path
       id="path1626"
       style="fill:#ffffff;stroke:#000000;stroke-width:1.016;stroke-linecap:round;stroke-linejoin:round"
       inkscape:label="Gear"
       d="M 23.093452,-0.12692696 V 4.4914051 h 0.0036 A 7.9375157,7.9375157 0 0 0 21.02689,5.4882454 l 0.0021,-0.00258 -3.61064,-2.8794166 -2.962616,3.7145094 3.61064,2.8799334 0.0026,-0.0031 a 7.9375157,7.9375157 0 0 0 -0.511081,2.2401774 l -0.001,-0.0036 -4.502577,1.027846 1.057302,4.632285 4.502577,-1.027847 -5.17e-4,-0.0031 a 7.9375157,7.9375157 0 0 0 1.432991,1.796793 l -0.0041,-0.0021 -2.004016,4.160995 4.280885,2.061377 2.004016,-4.160995 -0.0041,-0.0021 a 7.9375157,7.9375157 0 0 0 1.149803,0.08527 7.9375157,7.9375157 0 0 0 1.149802,-0.08527 l -0.0041,0.0021 2.004016,4.160995 4.280885,-2.061377 -2.004016,-4.160995 -0.0041,0.0021 a 7.9375157,7.9375157 0 0 0 1.432991,-1.796793 l -5.17e-4,0.0031 4.502577,1.027847 1.057302,-4.632285 -4.502577,-1.027846 A 7.9375157,7.9375157 0 0 0 32.870136,9.198104 l 0.0015,0.00207 3.61064,-2.8794166 L 33.51971,2.606245 29.90907,5.4856616 A 7.9375157,7.9375157 0 0 0 27.842526,4.4914051 h 0.0021 v -4.61833206 z m 2.375571,8.22948836 a 3.9624081,3.9624081 0 0 1 3.962556,3.9625566 3.9624081,3.9624081 0 0 1 -3.962556,3.962557 3.9624081,3.9624081 0 0 1 -3.962557,-3.962557 3.9624081,3.9624081 0 0 1 3.962557,-3.9625566 z" />
  </g>
</svg>
