<?xml version="1.0" encoding="UTF-8" standalone="no"?>
<!-- Created with Inkscape (http://www.inkscape.org/) -->

<svg
   width="1.0375303in"
   height="1.0275362in"
   viewBox="0 0 26.353322 26.09947"
   version="1.1"
   id="svg135"
   inkscape:version="1.2.1 (9c6d41e410, 2022-07-14)"
   sodipodi:docname="light-mode.svg"
   xmlns:inkscape="http://www.inkscape.org/namespaces/inkscape"
   xmlns:sodipodi="http://sodipodi.sourceforge.net/DTD/sodipodi-0.dtd"
   xmlns="http://www.w3.org/2000/svg"
   xmlns:svg="http://www.w3.org/2000/svg">
  <sodipodi:namedview
     id="namedview137"
     pagecolor="#505050"
     bordercolor="#eeeeee"
     borderopacity="1"
     inkscape:showpageshadow="0"
     inkscape:pageopacity="0"
     inkscape:pagecheckerboard="0"
     inkscape:deskcolor="#505050"
     inkscape:document-units="in"
     showgrid="false"
     inkscape:zoom="4.7572176"
     inkscape:cx="35.31476"
     inkscape:cy="82.085797"
     inkscape:window-width="1920"
     inkscape:window-height="1121"
     inkscape:window-x="-9"
     inkscape:window-y="-9"
     inkscape:window-maximized="1"
     inkscape:current-layer="layer1" />
  <defs
     id="defs132">
    <inkscape:path-effect
       effect="copy_rotate"
       starting_point="112.7,12.7"
       origin="12.7,12.7"
       id="path-effect387"
       is_visible="true"
       lpeversion="1.2"
       lpesatellites=""
       method="normal"
       num_copies="9"
       starting_angle="0"
       rotation_angle="40"
       gap="0"
       copies_to_360="true"
       mirror_copies="false"
       split_items="false"
       link_styles="false" />
    <inkscape:path-effect
       effect="copy_rotate"
       starting_point="163.5,63.5"
       origin="63.5,63.5"
       id="path-effect1124"
       is_visible="true"
       lpeversion="1.2"
       lpesatellites=""
       method="normal"
       num_copies="9"
       starting_angle="0"
       rotation_angle="40"
       gap="0"
       copies_to_360="true"
       mirror_copies="false"
       split_items="false"
       link_styles="false" />
    <inkscape:path-effect
       effect="tiling"
       id="path-effect1122"
       is_visible="true"
       lpeversion="1"
       unit="px"
       seed="1;1"
       lpesatellites=""
       num_rows="1"
       num_cols="3"
       gapx="0"
       gapy="0"
       offset="0"
       offset_type="false"
       scale="0"
       rotate="0"
       mirrorrowsx="false"
       mirrorrowsy="false"
       mirrorcolsx="false"
       mirrorcolsy="false"
       mirrortrans="false"
       shrink_interp="false"
       split_items="false"
       link_styles="false"
       interpolate_scalex="false"
       interpolate_scaley="true"
       interpolate_rotatex="false"
       interpolate_rotatey="true"
       random_scale="false"
       random_rotate="false"
       random_gap_y="false"
       random_gap_x="false"
       transformorigin="" />
  </defs>
  <g
     inkscape:label="Layer 1"
     inkscape:groupmode="layer"
     id="layer1"
     transform="translate(0.43557535,0.64641808)">
    <circle
       style="fill:#ffffff;fill-opacity:1;stroke:#000000;stroke-width:1.27;stroke-linecap:round;stroke-linejoin:round"
       id="path231"
       cx="12.696683"
       cy="12.701297"
       r="5.7150116" />
    <path
       id="path1003"
       style="fill:#ffffff;stroke:#000000;stroke-width:1.27;stroke-linecap:round;stroke-linejoin:round"
       d="m 14.477429,3.6715815 c 0,0.8544892 -0.693567,1.5471896 -1.549126,1.5471896 -0.855558,0 -1.549125,-0.6927004 -1.549125,-1.5471896 l 0.0083,-2.1358099 c 0,-0.85448929 0.693567,-1.54718971 1.549125,-1.54718969 0.855559,-2e-8 1.549126,0.6927004 1.549126,1.54718969 z M 8.2582341,4.6413208 C 8.8074891,5.2958975 8.7214452,6.2723531 8.066049,6.8222958 7.4106536,7.3722379 6.4340912,7.2874149 5.8848361,6.6328382 L 4.5183221,4.9913778 C 3.969067,4.336801 4.0551109,3.3603454 4.7105064,2.8104033 5.3659026,2.2604606 6.342465,2.3452836 6.8917201,2.9998604 Z M 4.1173908,9.3818057 c 0.8415076,0.1483805 1.4032476,0.9516973 1.2546814,1.7942583 -0.1485661,0.84256 -0.9511795,1.405304 -1.7926871,1.256923 L 1.4774643,12.053934 C 0.63595658,11.905553 0.07421649,11.102237 0.22278259,10.259677 0.37134883,9.4171158 1.1739622,8.8543718 2.0154699,9.0027523 Z M 3.9924457,15.674911 c 0.7400094,-0.427245 1.686689,-0.172949 2.1144685,0.567987 0.427779,0.740935 0.1746664,1.687932 -0.565343,2.115177 L 3.6877556,19.418792 C 2.9477462,19.846036 2.0010665,19.59174 1.5732875,18.850805 1.145508,18.109869 1.3986207,17.162872 2.1386301,16.735628 Z m 3.9494164,4.901111 c 0.2922525,-0.802957 1.1809098,-1.216669 1.9848723,-0.924051 0.8039616,0.292618 1.2187836,1.180758 0.9265316,1.983715 l -0.73829,2.004166 C 9.8227237,24.442809 8.9340664,24.856521 8.1301049,24.563903 7.3261424,24.271284 6.9113201,23.383145 7.2035726,22.580188 Z m 6.1758019,1.215833 c -0.292252,-0.802957 0.12257,-1.691097 0.926532,-1.983715 0.803962,-0.292618 1.692619,0.121093 1.984872,0.924051 l 0.72269,2.009843 c 0.292253,0.802957 -0.12257,1.691097 -0.926531,1.983715 -0.803963,0.292618 -1.69262,-0.121093 -1.984872,-0.924051 z m 5.512461,-3.038347 c -0.740009,-0.427245 -0.993122,-1.374242 -0.565342,-2.115177 0.427779,-0.740935 1.374458,-0.995232 2.114468,-0.567987 l 1.845515,1.075093 c 0.74001,0.427244 0.993123,1.374241 0.565343,2.115176 -0.427779,0.740936 -1.374459,0.995233 -2.114468,0.567988 z m 2.269779,-5.870851 c -0.841508,0.148381 -1.644121,-0.414363 -1.792687,-1.256924 -0.148566,-0.84256 0.413174,-1.6458767 1.254681,-1.7942572 l 2.104804,-0.3627056 c 0.841507,-0.1483805 1.644121,0.4143635 1.792687,1.2569238 0.148566,0.842561 -0.413174,1.645877 -1.254682,1.794258 z M 19.864945,6.9263395 C 19.31569,7.5809162 18.339128,7.6657392 17.683731,7.1157965 17.028336,6.5658544 16.942292,5.5893989 17.491547,4.9348222 L 18.870778,3.304032 c 0.549255,-0.6545768 1.525817,-0.7393998 2.181212,-0.1894577 0.655397,0.5499427 0.741441,1.5263983 0.192185,2.180975 z"
       sodipodi:nodetypes="csccscc"
       inkscape:path-effect="#path-effect387"
       inkscape:original-d="m 14.477429,3.6715815 c 0,0.8544892 -0.693567,1.5471896 -1.549126,1.5471896 -0.855558,0 -1.549125,-0.6927004 -1.549125,-1.5471896 l 0.0083,-2.1358099 c 0,-0.85448929 0.693567,-1.54718971 1.549125,-1.54718969 0.855559,-2e-8 1.549126,0.6927004 1.549126,1.54718969 z"
       class="UnoptimicedTransforms" />
  </g>
</svg>
